HIERARCHY
ROOT Hips
{
	OFFSET 0.000000 0.000000 0.000000 
	CHANNELS 6 Xposition Yposition Zposition Yrotation Zrotation Xrotation 
	JOINT Lumbar
	{
		OFFSET 0.000000 0.000000 0.000000 
		CHANNELS 3 Zrotation Xrotation Yrotation
		JOINT Neck
		{
			OFFSET 0.000000 0.445665 0.000000 
			CHANNELS 3 Zrotation Xrotation Yrotation
			End Site
			{
				OFFSET 0.000000 0.227535 0.000000 
			}
		}
		JOINT RightShoulder
		{
			OFFSET 0.019635 0.377685 0.194865 
			CHANNELS 3 Zrotation Xrotation Yrotation
			JOINT RightElbow
			{
				OFFSET 0.000000 -0.243375 0.000000 
				CHANNELS 2 Zrotation Yrotation
				JOINT RightWrist
				{
					OFFSET 0.000000 -0.264825 0.000000 
					CHANNELS 2 Zrotation Xrotation
					End Site
					{
						OFFSET 0.006600 -0.176220 0.000990 
					}
				}
			}
		}
		JOINT LeftShoulder
		{
			OFFSET 0.019635 0.377685 -0.194865 
			CHANNELS 3 Zrotation Xrotation Yrotation
			JOINT LeftElbow
			{
				OFFSET 0.000000 -0.243375 0.000000 
				CHANNELS 2 Zrotation Yrotation
				JOINT LeftWrist
				{
					OFFSET 0.000000 -0.264825 0.000000 
					CHANNELS 2 Zrotation Xrotation
					End Site
					{
						OFFSET 0.006600 -0.176220 -0.000990 
					}
				}
			}
		}
	}
	JOINT RightHip
	{
		OFFSET 0.052140 -0.069960 0.075570 
		CHANNELS 3 Zrotation Xrotation Yrotation
		JOINT RightKnee
		{
			OFFSET 0.000000 -0.402270 0.000000 
			CHANNELS 1 Zrotation
			JOINT RightAnkle
			{
				OFFSET 0.000000 -0.404085 0.000000 
				CHANNELS 3 Zrotation Xrotation Yrotation
				End Site
				{
					OFFSET 0.204105 -0.089430 0.008415 
				}
			}
		}
	}
	JOINT LeftHip
	{
		OFFSET 0.052140 -0.069960 -0.075570 
		CHANNELS 3 Zrotation Xrotation Yrotation
		JOINT LeftKnee
		{
			OFFSET 0.000000 -0.402270 0.000000 
			CHANNELS 1 Zrotation
			JOINT LeftAnkle
			{
				OFFSET 0.000000 -0.404085 0.000000 
				CHANNELS 3 Zrotation Xrotation Yrotation
				End Site
				{
					OFFSET 0.204105 -0.089430 -0.008415 
				}
			}
		}
	}
}
MOTION
Frames: 19
Frame Time: 0.02
0.00151 -0.00316 0.00051 -174.81181 -29.09371 1.76496 41.13617 -0.12036 -9.38611 -11.72614 3.05869 -0.45418 -19.19311 -8.59989 2.95269 23.59873 57.32463 -2.10101 -5.00645 -23.66261 12.27236 -15.57619 31.8341 -79.00873 7.60971 3.26838 31.68381 -3.19115 -6.44643 -20.56985 -6.60405 -4.65065 -3.09028 36.23207 2.75158 1.74073 -24.34041 -6.96609 3.0566 2.23769
0.00024 -0.00296 0.00072 -174.84977 -29.0162 1.76122 41.27377 -0.14455 -9.20506 -11.7318 3.04879 -0.45449 -19.22934 -8.13188 1.26976 23.7608 64.97519 -0.14187 -3.78874 -23.61868 11.75572 -14.17993 31.73917 -84.83614 9.43526 2.32323 31.53395 -3.13819 -6.22309 -20.53086 -6.62581 -4.66547 -3.10253 36.07621 2.75655 1.70034 -24.32234 -6.96462 3.05624 2.23849
-0.00102 -0.00277 0.00092 -174.88769 -28.93889 1.75746 41.41103 -0.16864 -9.02449 -11.73737 3.03893 -0.4548 -19.26534 -7.66557 -0.40683 23.92238 72.59926 1.81051 -2.57528 -23.5749 11.24113 -12.78943 31.64465 -90.63863 11.25303 1.38213 31.38446 -3.08539 -6.00058 -20.492 -6.6475 -4.68024 -3.11474 35.92074 2.76152 1.66011 -24.30433 -6.96314 3.05591 2.23929
-0.00229 -0.00257 0.00113 -174.92555 -28.8616 1.75373 41.54822 -0.19275 -8.84398 -11.74301 3.02906 -0.45512 -19.30144 -7.19904 -2.08443 24.08395 80.22595 3.76354 -1.36138 -23.5311 10.72617 -11.39779 31.55004 -96.44645 13.07245 0.44015 31.23505 -3.03259 -5.77795 -20.45313 -6.66919 -4.69501 -3.12695 35.76535 2.76648 1.61986 -24.28632 -6.96166 3.05556 2.24009
-0.00355 -0.00237 0.00134 -174.96341 -28.78413 1.75001 41.68569 -0.21696 -8.66301 -11.74877 3.01915 -0.45543 -19.33784 -6.73073 -3.7687 24.24602 87.87975 5.72346 -0.1431 -23.48715 10.20893 -9.99963 31.45498 -102.28317 14.90088 -0.50653 31.08529 -2.97964 -5.55445 -20.41416 -6.69095 -4.70983 -3.13921 35.60962 2.77143 1.57941 -24.26825 -6.96019 3.05519 2.24088
-0.00481 -0.00218 0.00155 -175.00146 -28.70716 1.74618 41.82251 -0.24082 -8.48332 -11.75393 3.0094 -0.45575 -19.37298 -6.26867 -5.42902 24.40656 95.44066 7.65983 1.06013 -23.44371 9.6999 -8.62515 31.3616 -108.01422 16.69641 -1.43599 30.93639 -2.92715 -5.33402 -20.37552 -6.71249 -4.72451 -3.15132 35.4547 2.77647 1.53966 -24.25039 -6.95869 3.05493 2.24171
-0.00608 -0.00198 0.00176 -175.03911 -28.62926 1.74259 41.96051 -0.26535 -8.30122 -11.76029 2.99935 -0.45606 -19.41058 -5.79451 -7.13584 24.56997 103.18091 9.64166 2.29241 -23.39928 9.17512 -7.20526 31.26494 -113.94748 18.55488 -2.39841 30.78592 -2.8738 -5.10767 -20.33624 -6.73444 -4.73944 -3.16372 35.29831 2.78132 1.49857 -24.23212 -6.95725 3.05445 2.24246
-0.00734 -0.00178 0.00196 -175.07709 -28.55222 1.73878 42.0974 -0.28927 -8.1214 -11.76557 2.98956 -0.45638 -19.44601 -5.33157 -8.79951 24.73081 110.75436 11.58118 3.49771 -23.35581 8.66449 -5.8259 31.17131 -119.70177 20.35764 -3.33166 30.6369 -2.82124 -4.88673 -20.29756 -6.75602 -4.75414 -3.17585 35.14329 2.78634 1.4587 -24.21422 -6.95576 3.05417 2.24328
-0.00859 -0.0016 0.00217 -175.11564 -28.47618 1.73466 42.23306 -0.3124 -7.94404 -11.76942 2.98016 -0.45669 -19.47838 -4.88197 -10.41198 24.88825 118.13223 13.4712 4.6712 -23.31331 8.17247 -4.50111 31.08137 -125.20866 22.08341 -4.22455 30.48959 -2.76964 -4.67252 -20.25957 -6.77714 -4.76857 -3.18764 34.98981 2.79157 1.42034 -24.1968 -6.95418 3.05417 2.24421
-0.00992 -0.00137 0.0024 -175.15141 -28.39426 1.73219 42.37617 -0.33994 -7.75156 -11.78115 2.9687 -0.45701 -19.52714 -4.35446 -12.3237 25.06451 126.66056 15.65274 6.03127 -23.26464 7.57732 -2.87744 30.97015 -132.05295 24.22546 -5.33556 30.33224 -2.7125 -4.41994 -20.2175 -6.8009 -4.78461 -3.20136 34.82708 2.7956 1.37336 -24.1767 -6.95304 3.05263 2.24455
-0.01107 -0.00122 0.00257 -175.19274 -28.32481 1.72633 42.50332 -0.35829 -7.59159 -11.7765 2.96146 -0.45731 -19.5421 -3.99209 -13.60111 25.20149 132.74532 17.21487 6.9954 -23.22933 7.19724 -1.87467 30.90385 -136.1309 25.50638 -5.99542 30.19624 -2.66705 -4.2481 -20.18408 -6.81906 -4.7972 -3.21101 34.6841 2.80218 1.34452 -24.16221 -6.95101 3.05429 2.24611
-0.01174 -0.00131 0.00257 -175.25211 -28.28939 1.71046 42.58837 -0.35007 -7.51669 -11.72419 2.96684 -0.45754 -19.4571 -4.08049 -13.14683 25.22625 132.19997 17.0984 6.88228 -23.22829 7.43486 -2.67552 30.9624 -132.06867 24.25391 -5.32775 30.11788 -2.65389 -4.30175 -20.17427 -6.82193 -4.8006 -3.20934 34.59394 2.81574 1.36654 -24.16354 -6.94636 3.06535 2.25139
-0.01223 -0.00147 0.00252 -175.31655 -28.26654 1.69131 42.65706 -0.33287 -7.47514 -11.65592 2.97624 -0.45774 -19.33966 -4.33484 -12.05526 25.21246 129.19196 16.35738 6.3706 -23.24119 7.884 -4.08364 31.0661 -125.31737 22.16424 -4.22157 30.06115 -2.65242 -4.43569 -20.17317 -6.81917 -4.80049 -3.2036 34.52387 2.8319 1.40663 -24.17044 -6.94087 3.07952 2.25784
-0.01281 -0.00159 0.00249 -175.37687 -28.23806 1.67408 42.73216 -0.32068 -7.42113 -11.59674 2.98311 -0.45796 -19.24157 -4.51518 -11.2478 25.21911 127.25541 15.88668 6.03434 -23.24919 8.21756 -5.14574 31.14767 -120.17182 20.57412 -3.37724 29.99508 -2.64551 -4.53041 -20.16815 -6.81891 -4.80179 -3.1998 34.44545 2.84686 1.43769 -24.17449 -6.9359 3.09188 2.26352
-0.01339 -0.00173 0.00247 -175.44491 -28.20921 1.65497 42.81165 -0.30457 -7.35609 -11.52982 2.99296 -0.45818 -19.12332 -4.69117 -10.45689 25.21307 125.49486 15.46625 5.71838 -23.25083 8.631 -6.4953 31.23476 -113.45468 18.49633 -2.27658 29.92687 -2.63926 -4.63706 -20.16297 -6.81885 -4.80381 -3.1956 34.36367 2.86181 1.47203 -24.1798 -6.93035 3.10592 2.27018
-0.0139 -0.00185 0.00241 -175.498 -28.18418 1.63907 42.878 -0.29445 -7.32155 -11.47515 2.99753 -0.45838 -19.04017 -4.91398 -9.48725 25.22469 122.80965 14.79999 5.26944 -23.26946 8.93155 -7.40192 31.32279 -109.30628 17.21486 -1.59498 29.86838 -2.63429 -4.73758 -20.16023 -6.81706 -4.80354 -3.19128 34.2938 2.8775 1.50408 -24.18391 -6.9258 3.11719 2.27508
-0.01423 -0.00187 0.00226 -175.50911 -28.16558 1.63245 42.91317 -0.30354 -7.36622 -11.45946 2.9868 -0.45849 -19.05546 -5.2386 -8.12357 25.29153 117.96111 13.55038 4.51955 -23.32798 8.83817 -6.8304 31.38684 -113.50829 18.5242 -2.27487 29.82995 -2.63083 -4.80414 -20.1616 -6.81185 -4.7975 -3.18746 34.25007 2.8937 1.52305 -24.18253 -6.92428 3.12023 2.27486
-0.01449 -0.00188 0.00206 -175.50487 -28.15038 1.62925 42.93553 -0.31892 -7.43983 -11.45674 2.97053 -0.45857 -19.10858 -5.60223 -6.61243 25.37807 112.30658 12.08566 3.6554 -23.4039 8.62891 -5.81007 31.45275 -120.28508 20.63171 -3.3749 29.80053 -2.62808 -4.86133 -20.1652 -6.80511 -4.78933 -3.18369 34.21766 2.9107 1.53936 -24.17988 -6.92379 3.12035 2.27283
-0.01477 -0.00189 0.00188 -175.50734 -28.13458 1.62471 42.96298 -0.33105 -7.49812 -11.44684 2.95667 -0.45867 -19.1484 -5.93918 -5.20646 25.45753 107.16253 10.75748 2.86439 -23.47408 8.49329 -5.06706 31.5285 -125.48103 22.2482 -4.21751 29.76837 -2.62444 -4.92097 -20.16809 -6.79912 -4.78234 -3.17999 34.18165 2.92795 1.55863 -24.17835 -6.9228 3.12167 2.27159
